# xmcd CD database file
#
# Track frame offsets:
#	182
#	40865
#	82700
#	109917
#	157270
#	195165
#
# Disc length: 2942 seconds
#
# Revision: 0
# Processed by: cddbd v1.5.2PL0 Copyright (c) Steve Scherf et al.
# Submitted via: CDex 1.70beta2
#
DISCID=3e0b7c06
DTITLE=Patrice Clementin  - Jade
DYEAR=1998
DGENRE=New Age
TTITLE0=Souen
TTITLE1=Kouan
TTITLE2=Pi
TTITLE3=Houan
TTITLE4=Suuf
TTITLE5=K'an
EXTD=YEAR: 1998
EXTT0=
EXTT1=
EXTT2=
EXTT3=
EXTT4=
EXTT5=
PLAYORDER=
